<svg id="Calque_1" data-name="Calque 1" xmlns="http://www.w3.org/2000/svg" viewBox="0 0 16 16"><defs><style>.cls-1{fill:#f59a17;}</style></defs><path d="M8.13,11.06l-.3,0a.6.6,0,0,0-.23.06.09.09,0,0,0,0,.08s0,.06.07.07h.13a.8.8,0,0,0,.34-.07.14.14,0,0,0,.09-.14S8.16,11.06,8.13,11.06Zm0,0-.3,0a.6.6,0,0,0-.23.06.09.09,0,0,0,0,.08s0,.06.07.07h.13a.8.8,0,0,0,.34-.07.14.14,0,0,0,.09-.14S8.16,11.06,8.13,11.06Zm0,0-.3,0a.6.6,0,0,0-.23.06.09.09,0,0,0,0,.08s0,.06.07.07h.13a.8.8,0,0,0,.34-.07.14.14,0,0,0,.09-.14S8.16,11.06,8.13,11.06Zm0,0-.3,0a.6.6,0,0,0-.23.06.09.09,0,0,0,0,.08s0,.06.07.07h.13a.8.8,0,0,0,.34-.07.14.14,0,0,0,.09-.14S8.16,11.06,8.13,11.06Zm0,0-.3,0a.6.6,0,0,0-.23.06.09.09,0,0,0,0,.08s0,.06.07.07h.13a.8.8,0,0,0,.34-.07.14.14,0,0,0,.09-.14S8.16,11.06,8.13,11.06Zm0,0-.3,0a.6.6,0,0,0-.23.06.09.09,0,0,0,0,.08s0,.06.07.07h.13a.8.8,0,0,0,.34-.07.14.14,0,0,0,.09-.14S8.16,11.06,8.13,11.06Zm0,0-.3,0a.6.6,0,0,0-.23.06.09.09,0,0,0,0,.08s0,.06.07.07h.13a.8.8,0,0,0,.34-.07.14.14,0,0,0,.09-.14S8.16,11.06,8.13,11.06Zm0,0-.3,0a.6.6,0,0,0-.23.06.09.09,0,0,0,0,.08s0,.06.07.07h.13a.8.8,0,0,0,.34-.07.14.14,0,0,0,.09-.14S8.16,11.06,8.13,11.06Zm0,0-.3,0a.6.6,0,0,0-.23.06.09.09,0,0,0,0,.08s0,.06.07.07h.13a.8.8,0,0,0,.34-.07.14.14,0,0,0,.09-.14S8.16,11.06,8.13,11.06Zm0,0-.3,0a.6.6,0,0,0-.23.06.09.09,0,0,0,0,.08s0,.06.07.07h.13a.8.8,0,0,0,.34-.07.14.14,0,0,0,.09-.14S8.16,11.06,8.13,11.06Zm0,0-.3,0a.6.6,0,0,0-.23.06.09.09,0,0,0,0,.08s0,.06.07.07h.13a.8.8,0,0,0,.34-.07.14.14,0,0,0,.09-.14S8.16,11.06,8.13,11.06Zm0,0-.3,0a.6.6,0,0,0-.23.06.09.09,0,0,0,0,.08s0,.06.07.07h.13a.8.8,0,0,0,.34-.07.14.14,0,0,0,.09-.14S8.16,11.06,8.13,11.06ZM8,.14A7.89,7.89,0,1,0,15.87,8,7.89,7.89,0,0,0,8,.14Zm-1.34,5L8,2.58l0-.05.41.79.93,1.81c.06.11.06.11-.06.11H6.69C6.62,5.24,6.6,5.22,6.64,5.15Zm1.8,6.32s0,0,0,0H8.22s-.05,0-.05-.05,0,0,0,0a.63.63,0,0,1-.23.08.93.93,0,0,1-.44,0,.26.26,0,0,1-.21-.33A.26.26,0,0,1,7.44,11a.82.82,0,0,1,.34-.09l.36,0s0,0,0,0a.11.11,0,0,0-.09-.07.7.7,0,0,0-.29,0,1.43,1.43,0,0,0-.41.09V10.6s0,0,0,0a1.63,1.63,0,0,1,.73,0,.47.47,0,0,1,.23.12.28.28,0,0,1,.08.2ZM4.22,9.84c.16-.29.3-.58.44-.86.4-.76.79-1.52,1.18-2.28L6.2,6a.12.12,0,0,1,.12-.07H7.49c.09,0,.11,0,.11.11,0,.85,0,1.71,0,2.56,0,.07,0,.09-.09.11l-1.7.59-1.54.54Zm2.36.69a.61.61,0,0,1,.3,0,0,0,0,0,1,0,0v.16s0,0,0,0a.55.55,0,0,0-.57.14.09.09,0,0,0,0,.07v.5s0,0,0,0H6.05s0,0,0,0v-.91s0,0,0,0h.2s0,0,0,0v.12A1,1,0,0,1,6.58,10.53Zm-2.11,0s0,0,0,0h1s0,0,0,0v.14s0,0,0,0H5.19s0,0,0,0v.66s0,.05-.05.05H4.92s0,0,0,0c0-.22,0-.44,0-.67,0,0,0,0,0,0H4.51s0,0,0,0A.33.33,0,0,0,4.47,10.57Zm.44,2.84,0,.06,0,0c-.11-.11-.11-.11,0-.22s.06,0,.1,0,.08.07.08.1S4.94,13.38,4.91,13.41Zm.38,0c-.1.09-.1.09-.2,0s0-.06,0-.11.1-.1.21,0a.1.1,0,0,1,0,.06ZM9.09,13A.11.11,0,0,1,9,13.1H7.33c-.1,0-.14,0-.21-.12a.23.23,0,0,1-.41,0,.26.26,0,0,1-.28.12H6.17A.2.2,0,0,1,6,12.85a1,1,0,0,0,0-.34.2.2,0,0,0-.19-.17s-.06,0-.07,0-.07.32-.11.48a.42.42,0,0,1-.06.14.16.16,0,0,1-.15.1,4.68,4.68,0,0,1-.65,0,.31.31,0,0,1-.27-.22.22.22,0,0,1,.07-.21.64.64,0,0,0,0,.07.3.3,0,0,0,.31.21h.36c.11,0,.14,0,.17-.13s.09-.34.13-.51.07-.15.19-.14a.46.46,0,0,1,.47.55l0,.15c0,.05,0,.08.06.08h.16a.18.18,0,0,0,.15-.11,1.72,1.72,0,0,0,.09-.44s0,0,0-.05l.23-.06c-.06.23-.1.44-.16.66.12,0,.2,0,.23-.13A1.26,1.26,0,0,0,7,12.38s0,0,0,0l.21-.06a.27.27,0,0,1,0,.15c0,.16-.07.32-.11.48s0,0,0,0a.16.16,0,0,0,.19-.12,1.12,1.12,0,0,0,.09-.44,0,0,0,0,1,0,0l.23-.07-.09.39c0,.05,0,.11,0,.17s0,.1.09.1H8.9s0,0,0,0a.2.2,0,0,0-.16-.17H8.16l.11-.17s0,0,.05,0h.4a.5.5,0,0,1,.27.08A.33.33,0,0,1,9.09,13Zm.08-1.54H8.89l.26-.28L9.32,11s0,0,0,0L9,10.57l0,0h.16a.25.25,0,0,1,.27.12c0,.06.1.11.14.16s0,0,0,0l.23-.25s0,0,0,0h.3l-.14.16L9.69,11s0,0,0,.06.28.29.41.44h0s0,0,0,0H10a.26.26,0,0,1-.29-.13l-.16-.17s0,0,0,0l-.25.27A.07.07,0,0,1,9.17,11.5Zm.23,1.61s0,0,0,0l.12-.49.12-.51s0-.05,0-.07,0-.08.07-.09l.18-.05c-.09.37-.17.73-.26,1.09A.23.23,0,0,1,9.4,13.11Zm1.77-.21c0,.16-.11.2-.27.2h-.64s0,0,0,0,0,0,0,.08a.23.23,0,0,1-.17.16.28.28,0,0,1-.28-.1H9.8a.22.22,0,0,0,.2-.14,2,2,0,0,0,.08-.35,1.47,1.47,0,0,0,.07-.41s0,0,0,0l.16,0c.05,0,.06,0,.05,0s-.08.32-.11.47,0,.13.1.13h.42c.11,0,.14,0,.17-.13a1.2,1.2,0,0,0,.08-.42s0,0,0,0l.2-.06s0,0,0,0C11.26,12.52,11.22,12.71,11.17,12.9Zm-.4-1c0-.05.07,0,.1,0S11,12,11,12s-.06.07-.09.1l0,.06-.05,0s-.09-.07-.09-.11S10.74,12,10.77,11.91Zm-.1-.9-.44-.48h.31s0,0,0,0l.22.24s0,0,0,.06Zm.63,1-.13.13h0S11,12.06,11,12s.08-.09.12-.14,0,0,0,0l.12.11v0Zm.46-2.18-.7-.24L8.49,8.71a.11.11,0,0,1-.1-.13c0-.85,0-1.71,0-2.56,0-.07,0-.09.1-.09H9.7A.1.1,0,0,1,9.8,6l1.78,3.46.2.37ZM7.83,11.09a.6.6,0,0,0-.23.06.09.09,0,0,0,0,.08s0,.06.07.07h.13a.8.8,0,0,0,.34-.07.14.14,0,0,0,.09-.14s0,0,0,0Zm.3,0-.3,0a.6.6,0,0,0-.23.06.09.09,0,0,0,0,.08s0,.06.07.07h.13a.8.8,0,0,0,.34-.07.14.14,0,0,0,.09-.14S8.16,11.06,8.13,11.06Zm0,0-.3,0a.6.6,0,0,0-.23.06.09.09,0,0,0,0,.08s0,.06.07.07h.13a.8.8,0,0,0,.34-.07.14.14,0,0,0,.09-.14S8.16,11.06,8.13,11.06Zm0,0-.3,0a.6.6,0,0,0-.23.06.09.09,0,0,0,0,.08s0,.06.07.07h.13a.8.8,0,0,0,.34-.07.14.14,0,0,0,.09-.14S8.16,11.06,8.13,11.06Zm0,0-.3,0a.6.6,0,0,0-.23.06.09.09,0,0,0,0,.08s0,.06.07.07h.13a.8.8,0,0,0,.34-.07.14.14,0,0,0,.09-.14S8.16,11.06,8.13,11.06Zm0,0-.3,0a.6.6,0,0,0-.23.06.09.09,0,0,0,0,.08s0,.06.07.07h.13a.8.8,0,0,0,.34-.07.14.14,0,0,0,.09-.14S8.16,11.06,8.13,11.06Zm0,0-.3,0a.6.6,0,0,0-.23.06.09.09,0,0,0,0,.08s0,.06.07.07h.13a.8.8,0,0,0,.34-.07.14.14,0,0,0,.09-.14S8.16,11.06,8.13,11.06Zm0,0-.3,0a.6.6,0,0,0-.23.06.09.09,0,0,0,0,.08s0,.06.07.07h.13a.8.8,0,0,0,.34-.07.14.14,0,0,0,.09-.14S8.16,11.06,8.13,11.06Zm0,0-.3,0a.6.6,0,0,0-.23.06.09.09,0,0,0,0,.08s0,.06.07.07h.13a.8.8,0,0,0,.34-.07.14.14,0,0,0,.09-.14S8.16,11.06,8.13,11.06Zm0,0-.3,0a.6.6,0,0,0-.23.06.09.09,0,0,0,0,.08s0,.06.07.07h.13a.8.8,0,0,0,.34-.07.14.14,0,0,0,.09-.14S8.16,11.06,8.13,11.06Zm0,0-.3,0a.6.6,0,0,0-.23.06.09.09,0,0,0,0,.08s0,.06.07.07h.13a.8.8,0,0,0,.34-.07.14.14,0,0,0,.09-.14S8.16,11.06,8.13,11.06Z"/><g id="logo"><path class="cls-1" d="M8.75,12.09h0a.39.39,0,0,0-.28.16c-.1.13-.19.27-.28.4a.09.09,0,0,1-.1.06H7.87s0,0,0,0l.32-.49A.48.48,0,0,1,8.49,12,.31.31,0,0,1,8.75,12.09Z"/><path class="cls-1" d="M11.53,10.6l-.07,0a.52.52,0,0,0-.32.22l-.4.61a.1.1,0,0,1-.1.05h-.23l.07-.1.38-.57a.69.69,0,0,1,.23-.25.34.34,0,0,1,.41,0Z"/></g></svg>